<svg xmlns="http://www.w3.org/2000/svg" xmlns:xlink="http://www.w3.org/1999/xlink" xmlns:inkscape="http://www.inkscape.org/namespaces/inkscape" version="1.1" width="1087.1919" height="1082.606" viewBox="0 0 1087.1919 1082.606">
<g inkscape:groupmode="layer" inkscape:label="Layer 1">
<path transform="matrix(1,0,0,-1,1,1081.606)" d="M0 1080.606H1085.1919V0H0Z" fill="#ffffff" fill-rule="evenodd"/>
<path transform="matrix(1,0,0,-1,1,1081.606)" d="M593.5363 448.5124 593.4711 461.3533C586.0712 461.3774 555.5197 460.2555 550.9497 462.3389 544.7458 465.1676 545.0652 470.5676 545.0862 478.4088 545.1032 484.5308 543.8072 494.7616 546.8145 499.2783 550.2626 504.4578 555.8471 504.29 563.7353 504.2985 570.7273 504.3056 579.598 505.7515 582.5392 500.4944 586.0341 494.2471 581.5307 488.649 574.9415 488.3638 567.6732 488.0497 559.8334 488.7669 552.6196 488.2572L552.6454 475.3843C561.0926 474.8814 579.594 474.2209 586.0015 477.2143 604.1205 485.6811 600.3944 515.3357 578.8264 517.0221 570.6354 517.6624 551.2294 517.8971 544.7684 515.1197 537.7371 512.0974 531.0615 504.1616 530.886 493.5696 530.7299 484.1371 529.5835 467.7608 533.4086 460.584 537.5404 452.8324 545.2121 448.4115 557.1556 448.5115 569.281 448.6133 581.4173 448.4486 593.5363 448.5124" fill-rule="evenodd"/>
<path transform="matrix(1,0,0,-1,1,1081.606)" d="M628.5144 449.0549 667.1463 448.9872 666.9343 462.223C664.518 462.1686 633.704 461.209 631.6313 462.8812 627.3091 462.7902 623.7763 465.5149 622.0837 468.3328 619.4639 472.6962 619.628 492.1359 621.9828 496.472 623.6084 499.4657 626.8606 502.3191 631.4868 502.6929 635.1982 504.8036 660.9427 503.7358 667.1177 503.4336L667.1494 516.5847 628.439 516.6312C620.6513 515.9497 614.624 511.1736 611.2227 506.6019 605.8063 499.3226 606.3276 493.4889 606.291 483.014 606.2579 473.4765 606.1683 466.4095 610.6578 459.5374 613.5214 455.1537 620.6632 448.8015 628.5144 449.0549" fill-rule="evenodd"/>
<path transform="matrix(1,0,0,-1,1,1081.606)" d="M765.0709 448.5427 817.6612 448.5722 817.6402 462.604 780.2572 462.6598C780.9489 464.563 810.3192 494.538 815.2903 499.9039 817.4327 502.2173 820.6781 504.4034 820.5576 509.3348 820.4488 513.7761 817.7477 517.1247 813.1127 516.7998 808.6017 516.4843 788.3345 492.1373 783.5179 487.5803L762.302 465.385C760.2131 463.1329 757.0074 460.9253 757.2141 456.0574 757.4029 451.6254 760.5612 448.5271 765.0709 448.5427" fill-rule="evenodd"/>
<path transform="matrix(1,0,0,-1,1,1081.606)" d="M455.0346 434.4746C459.1794 442.3275 458.238 449.8866 458.2551 459.9856 458.2715 469.3725 458.7735 511.1688 458.0501 516.8707L444.8398 516.9427C444.1978 512.9289 444.5974 478.705 444.6167 471.829 444.6391 464.152 444.6383 456.4522 444.5909 448.776 444.5473 441.5703 441.4153 436.5068 435.3386 435.2346L408.6006 434.9356 408.5552 420.569C411.0647 420.0094 433.4202 419.7569 437.5964 420.9582 442.3425 422.3237 450.6435 426.1533 455.0346 434.4746" fill-rule="evenodd"/>
<path transform="matrix(1,0,0,-1,1,1081.606)" d="M679.1335 448.4602 692.9294 448.5047 693.0677 546.628 678.8599 546.9279C678.4277 530.5501 678.8078 513.8773 678.7247 497.4894 678.6833 489.2907 677.7757 453.6731 679.1335 448.4602" fill-rule="evenodd"/>
<path transform="matrix(1,0,0,-1,1,1081.606)" d="M436.6491 448.8225 436.5354 462.3792C407.5974 465.7791 403.8951 450.3883 406.4346 516.7712L392.3348 516.9314C392.4403 504.5284 390.5053 471.4886 394.7678 462.7661 397.2662 457.6544 403.6192 451.6432 409.5128 449.9104 414.864 448.3366 430.6513 448.141 436.6491 448.8225" fill-rule="evenodd"/>
<path transform="matrix(1,0,0,-1,1,1081.606)" d="M722.4117 502.7443C732.9781 500.9445 732.1133 492.2328 732.1388 481.0402 732.1637 470.2133 732.0285 459.3609 732.1079 448.5396L746.2233 448.5016C745.8256 463.0048 746.4152 477.697 746.1604 492.2422 745.9483 504.3382 736.7139 515.4276 726.114 516.3335L701.1476 516.6096 701.191 503.3435C706.4722 503.4413 718.4826 504.6542 722.4117 502.7443" fill-rule="evenodd"/>
<path transform="matrix(1,0,0,-1,1,1081.606)" d="M455.836 525.8665 538.8795 525.7998 538.6207 540.0428 455.8895 540.1414Z" fill-rule="evenodd"/>
<path transform="matrix(1,0,0,-1,1,1081.606)" d="M489.9583 513.2803 489.9064 448.5529 504.6412 448.486 504.5083 517.4566 489.9163 517.521Z" fill-rule="evenodd"/>
<path transform="matrix(1,0,0,-1,1,1081.606)" d="M760.3342 502.9478C792.8371 502.8778 783.5233 500.4672 793.3796 509.3107 795.8889 511.5623 798.5738 513.7894 800.013 516.7837L760.248 516.8653Z" fill-rule="evenodd"/>
<path transform="matrix(1,0,0,-1,1,1081.606)" d="M481.4816 631.4414C476.3951 638.5703 478.0494 648.4714 485.1771 653.5593L532.2067 687.1229C539.3347 692.2077 549.2367 690.554 554.3232 683.4254 559.41 676.2991 557.7551 666.3977 550.6271 661.3101L531.6676 647.7789C527.8581 645.0231 527.1233 639.6358 530.0668 635.9624 532.7969 632.5543 537.7122 631.8686 541.2685 634.4033L538.8812 632.6994 542.622 635.3688 541.768 634.7591 604.2254 679.3328C611.3543 684.4181 621.2554 682.7638 626.3433 675.6375 631.4281 668.5092 629.7744 658.6078 622.6481 653.5199L604.4083 640.5035C600.594 637.7513 599.855 632.3598 602.801 628.6822 605.5214 625.2851 610.4143 624.5955 613.9675 627.0985L617.0876 629.3251C624.2162 634.4099 634.1173 632.7558 639.2027 625.6298 644.2903 618.5013 642.6363 608.5996 635.5074 603.5122L596.412 575.6117C589.286 570.526 579.382 572.1806 574.2969 579.3063 569.2088 586.4349 570.8633 596.336 577.9922 601.4239L586.7921 607.7041C590.2858 610.2799 591.1866 615.1368 588.8259 618.7966 586.2937 622.7181 581.0151 623.7479 577.1951 621.0825L520.2343 580.4323C513.1066 575.3475 503.2049 577.0015 498.1184 584.13 493.0316 591.2563 494.6859 601.1578 501.8134 606.2454L513.3161 614.454 513.955 614.9106C517.5343 617.4635 518.4743 622.3791 516.09 626.0743 513.5576 630.0006 508.2752 631.0293 504.4555 628.3587L503.598 627.747C496.4703 622.6617 486.5683 624.3154 481.4816 631.4414" fill-rule="evenodd"/>
<path transform="matrix(1,0,0,-1,1,1081.606)" d="M374.9202 451.8904H363.9416V514.7719C363.9416 519.7263 364.2758 525.818 364.9229 533.003H364.6553C363.6068 528.7632 362.6694 525.7508 361.8437 523.921L329.8005 451.8904H324.4448L292.4685 523.3853C291.5535 525.4832 290.6167 528.6739 289.6569 533.003H289.3893C289.724 529.2541 289.9023 523.118 289.9023 514.6381V451.8904H279.3251V545.6106H293.8297L322.5702 480.2519C324.8019 475.2536 326.23 471.5048 326.8993 469.0054H327.2791C329.1534 474.16 330.6484 477.9984 331.7862 480.5198L361.1296 545.6106H374.9202Z"/>
<path transform="matrix(1,0,0,-1,1,1081.606)" d="M374.9202 448.6995H361.8255V513.697C361.8255 514.9607 361.8488 516.3194 361.8944 517.7713L331.1677 448.6995H323.0804L291.9963 518.2004C292.0107 516.7171 292.0184 515.1711 292.0184 513.5632V448.6995H277.2091V546.6518H295.2077L324.5046 480.0285C325.552 477.6712 326.4395 475.5566 327.1649 473.6869L327.8418 475.4438C328.608 477.4039 329.2809 479.0285 329.8603 480.3129L359.7661 546.6518H377.0362V448.6995ZM366.0576 452.9316H372.8041V542.4197H362.4934L333.7123 478.5769C333.1551 477.341 332.5096 475.7831 331.7763 473.9066 331.0152 471.9603 330.179 469.7294 329.2631 467.2114L328.7548 465.8142H325.2784L324.8578 467.3849C324.527 468.6211 324.0173 470.1396 323.3262 471.9353 322.6397 473.7195 321.7473 475.8466 320.6443 478.3173L292.4515 542.4197H281.4412V452.9316H287.786V513.5632C287.786 517.9368 287.7446 521.5459 287.6655 524.3947 287.5805 527.455 287.4535 529.9081 287.2896 531.7461L287.0844 534.0441H291.3463L291.7148 532.3825C292.1825 530.2732 292.6463 528.4363 293.1046 526.8696 293.5443 525.3659 293.9777 524.128 294.4026 523.1534L325.8088 452.9316H328.4337L359.9175 523.7141C360.3019 524.5662 360.7149 525.702 361.1551 527.1236 361.6075 528.5849 362.0917 530.3531 362.6053 532.4321L363.0036 534.0441H367.2289L367.0226 531.7461C366.7059 528.2283 366.463 524.9339 366.2972 521.8685 366.1387 518.9326 366.0576 516.2071 366.0576 513.697Z"/>
<path transform="matrix(1,0,0,-1,1,1081.606)" d="M539.5025 683.4317C545.0644 683.4317 549.5734 678.9226 549.5734 673.3607 549.5734 667.7989 545.0644 663.2898 539.5025 663.2898 533.9404 663.2898 529.4316 667.7989 529.4316 673.3607 529.4316 678.9226 533.9404 683.4317 539.5025 683.4317" fill="#ffffff" fill-rule="evenodd"/>
<path transform="matrix(1,0,0,-1,1,1081.606)" d="M587.4778 599.2974C593.0396 599.2974 597.5487 594.7886 597.5487 589.2265 597.5487 583.6646 593.0396 579.1558 587.4778 579.1558 581.9156 579.1558 577.4068 583.6646 577.4068 589.2265 577.4068 594.7886 581.9156 599.2974 587.4778 599.2974" fill="#ffffff" fill-rule="evenodd"/>
</g>
</svg>
